<mxfile host="app.diagrams.net" modified="2021-06-04T18:23:29.426Z" agent="5.0 (Windows NT 10.0; Win64; x64) AppleWebKit/537.36 (KHTML, like Gecko) Chrome/90.0.4430.212 Safari/537.36" etag="qof1j51Hx7oaZfzmhVF6" version="14.7.6" type="github">
  <diagram id="9wf4CWiCbrf2JlnWVkw0" name="Page-1">
    <mxGraphModel dx="1038" dy="580" grid="1" gridSize="10" guides="1" tooltips="1" connect="1" arrows="1" fold="1" page="1" pageScale="1" pageWidth="850" pageHeight="1100" math="0" shadow="0">
      <root>
        <mxCell id="0" />
        <mxCell id="1" parent="0" />
        <mxCell id="gHTCqGVvH519LYfv9E8P-2" value="Newly Added" style="html=1;opacity=60;rounded=1;" vertex="1" parent="1">
          <mxGeometry x="160" y="190" width="120" height="50" as="geometry" />
        </mxCell>
        <mxCell id="gHTCqGVvH519LYfv9E8P-3" value="packagedVaccine()" style="html=1;verticalAlign=bottom;endArrow=block;" edge="1" parent="1">
          <mxGeometry x="-0.0769" y="5" width="80" relative="1" as="geometry">
            <mxPoint x="280" y="214.5" as="sourcePoint" />
            <mxPoint x="390" y="214.5" as="targetPoint" />
            <Array as="points">
              <mxPoint x="310" y="214.5" />
            </Array>
            <mxPoint as="offset" />
          </mxGeometry>
        </mxCell>
        <mxCell id="gHTCqGVvH519LYfv9E8P-4" value="Ready to transport Vaccine" style="html=1;rounded=1;opacity=60;" vertex="1" parent="1">
          <mxGeometry x="390" y="190" width="155" height="50" as="geometry" />
        </mxCell>
        <mxCell id="gHTCqGVvH519LYfv9E8P-5" value="TransportVaccine()" style="html=1;verticalAlign=bottom;endArrow=block;" edge="1" parent="1">
          <mxGeometry width="80" relative="1" as="geometry">
            <mxPoint x="550" y="214.5" as="sourcePoint" />
            <mxPoint x="670" y="215" as="targetPoint" />
          </mxGeometry>
        </mxCell>
        <mxCell id="gHTCqGVvH519LYfv9E8P-6" value="Transported" style="html=1;rounded=1;opacity=60;" vertex="1" parent="1">
          <mxGeometry x="710" y="310" width="90" height="50" as="geometry" />
        </mxCell>
        <mxCell id="gHTCqGVvH519LYfv9E8P-7" value="AddVaccinePackage()" style="html=1;verticalAlign=bottom;startArrow=oval;startFill=1;endArrow=block;startSize=8;" edge="1" parent="1">
          <mxGeometry x="-0.0248" y="5" width="60" relative="1" as="geometry">
            <mxPoint x="47.5" y="214.5" as="sourcePoint" />
            <mxPoint x="160" y="214.5" as="targetPoint" />
            <mxPoint as="offset" />
          </mxGeometry>
        </mxCell>
        <mxCell id="gHTCqGVvH519LYfv9E8P-8" value="Verify vials" style="html=1;opacity=60;rounded=1;" vertex="1" parent="1">
          <mxGeometry x="310" y="40" width="80" height="50" as="geometry" />
        </mxCell>
        <mxCell id="gHTCqGVvH519LYfv9E8P-9" value="placeOrder()" style="endArrow=block;endFill=1;html=1;edgeStyle=orthogonalEdgeStyle;align=left;verticalAlign=top;" edge="1" parent="1">
          <mxGeometry x="-0.7115" y="-12" relative="1" as="geometry">
            <mxPoint x="468" y="180" as="sourcePoint" />
            <mxPoint x="390" y="60" as="targetPoint" />
            <Array as="points">
              <mxPoint x="468" y="185" />
              <mxPoint x="468" y="60" />
            </Array>
            <mxPoint as="offset" />
          </mxGeometry>
        </mxCell>
        <mxCell id="gHTCqGVvH519LYfv9E8P-11" value="VaccinneDelivered()" style="endArrow=block;endFill=1;html=1;edgeStyle=orthogonalEdgeStyle;align=left;verticalAlign=top;entryX=0.134;entryY=-0.092;entryDx=0;entryDy=0;entryPerimeter=0;exitX=1;exitY=0.75;exitDx=0;exitDy=0;" edge="1" parent="1" source="gHTCqGVvH519LYfv9E8P-8" target="gHTCqGVvH519LYfv9E8P-4">
          <mxGeometry x="-1" y="-100" relative="1" as="geometry">
            <mxPoint x="330" y="130" as="sourcePoint" />
            <mxPoint x="420" y="130" as="targetPoint" />
            <mxPoint x="-90" y="-57" as="offset" />
          </mxGeometry>
        </mxCell>
        <mxCell id="gHTCqGVvH519LYfv9E8P-14" value="TrackVaccine()" style="endArrow=block;endFill=1;html=1;edgeStyle=orthogonalEdgeStyle;align=left;verticalAlign=top;" edge="1" parent="1">
          <mxGeometry x="-0.375" y="-10" relative="1" as="geometry">
            <mxPoint x="545" y="270" as="sourcePoint" />
            <mxPoint x="665" y="270" as="targetPoint" />
            <Array as="points">
              <mxPoint x="605" y="270" />
              <mxPoint x="605" y="270" />
            </Array>
            <mxPoint as="offset" />
          </mxGeometry>
        </mxCell>
        <mxCell id="gHTCqGVvH519LYfv9E8P-16" value="Scan vaccine" style="html=1;opacity=60;rounded=1;" vertex="1" parent="1">
          <mxGeometry x="440" y="250" width="100" height="50" as="geometry" />
        </mxCell>
        <mxCell id="gHTCqGVvH519LYfv9E8P-17" value="" style="endArrow=none;html=1;edgeStyle=orthogonalEdgeStyle;strokeWidth=6;" edge="1" parent="1">
          <mxGeometry relative="1" as="geometry">
            <mxPoint x="670" y="300" as="sourcePoint" />
            <mxPoint x="670" y="200" as="targetPoint" />
          </mxGeometry>
        </mxCell>
        <mxCell id="gHTCqGVvH519LYfv9E8P-20" value="VaccineArrived" style="endArrow=block;endFill=1;html=1;edgeStyle=orthogonalEdgeStyle;align=left;verticalAlign=top;strokeWidth=1;" edge="1" parent="1">
          <mxGeometry x="-0.6255" y="20" relative="1" as="geometry">
            <mxPoint x="670" y="250" as="sourcePoint" />
            <mxPoint x="761" y="310" as="targetPoint" />
            <Array as="points">
              <mxPoint x="761" y="250" />
            </Array>
            <mxPoint as="offset" />
          </mxGeometry>
        </mxCell>
        <mxCell id="gHTCqGVvH519LYfv9E8P-22" value="ProvidesVials()" style="endArrow=block;endFill=1;html=1;edgeStyle=orthogonalEdgeStyle;align=left;verticalAlign=top;strokeWidth=1;exitX=0;exitY=0.75;exitDx=0;exitDy=0;" edge="1" parent="1" source="gHTCqGVvH519LYfv9E8P-4">
          <mxGeometry x="0.2258" y="20" relative="1" as="geometry">
            <mxPoint x="330" y="230" as="sourcePoint" />
            <mxPoint x="440" y="290" as="targetPoint" />
            <Array as="points">
              <mxPoint x="330" y="228" />
              <mxPoint x="330" y="290" />
            </Array>
            <mxPoint x="1" as="offset" />
          </mxGeometry>
        </mxCell>
        <mxCell id="gHTCqGVvH519LYfv9E8P-24" value="VaccinePatient()" style="endArrow=block;endFill=1;html=1;edgeStyle=orthogonalEdgeStyle;align=left;verticalAlign=top;strokeWidth=1;" edge="1" parent="1">
          <mxGeometry x="0.8" y="-30" relative="1" as="geometry">
            <mxPoint x="750" y="360" as="sourcePoint" />
            <mxPoint x="630" y="440" as="targetPoint" />
            <Array as="points">
              <mxPoint x="750" y="440" />
            </Array>
            <mxPoint as="offset" />
          </mxGeometry>
        </mxCell>
        <mxCell id="gHTCqGVvH519LYfv9E8P-26" value="Vaccinated" style="html=1;opacity=60;rounded=1;" vertex="1" parent="1">
          <mxGeometry x="550" y="420" width="80" height="50" as="geometry" />
        </mxCell>
        <mxCell id="gHTCqGVvH519LYfv9E8P-27" value="" style="ellipse;html=1;shape=endState;fillColor=#000000;strokeColor=#ff0000;rounded=1;opacity=60;" vertex="1" parent="1">
          <mxGeometry x="400" y="430" width="30" height="30" as="geometry" />
        </mxCell>
        <mxCell id="gHTCqGVvH519LYfv9E8P-29" value="DisposedVials()" style="endArrow=block;endFill=1;html=1;edgeStyle=orthogonalEdgeStyle;align=left;verticalAlign=top;strokeWidth=1;exitX=0;exitY=0.5;exitDx=0;exitDy=0;" edge="1" parent="1" source="gHTCqGVvH519LYfv9E8P-26">
          <mxGeometry x="0.6667" relative="1" as="geometry">
            <mxPoint x="382" y="466" as="sourcePoint" />
            <mxPoint x="430" y="445" as="targetPoint" />
            <mxPoint as="offset" />
          </mxGeometry>
        </mxCell>
        <mxCell id="gHTCqGVvH519LYfv9E8P-31" style="edgeStyle=orthogonalEdgeStyle;rounded=0;orthogonalLoop=1;jettySize=auto;html=1;exitX=0.5;exitY=1;exitDx=0;exitDy=0;strokeWidth=1;" edge="1" parent="1" source="gHTCqGVvH519LYfv9E8P-27" target="gHTCqGVvH519LYfv9E8P-27">
          <mxGeometry relative="1" as="geometry" />
        </mxCell>
      </root>
    </mxGraphModel>
  </diagram>
</mxfile>
